<svg width="183" height="44" viewBox="0 0 183 44" fill="none" xmlns="http://www.w3.org/2000/svg">
<path d="M0 35.2229L15.6993 0H23.7503L39.4999 35.2229H30.9458L27.8192 27.6751L25.954 23.3469L25.2554 21.486L19.6714 8.00563L8.35285 35.2229H0Z" fill="#37392E"/>
<path d="M54.7778 35.2229V26.3315L59.4979 21.4045L67.6981 31.449H77.3061L64.8514 15.693L79.4339 0H70.3765L54.7778 16.4368V0H46.6766V35.2229H54.7778Z" fill="#37392E"/>
<path d="M95.5978 31.449H87.4463V0H95.5978V31.449Z" fill="#37392E"/>
<path fill-rule="evenodd" clip-rule="evenodd" d="M115.631 31.449H107.479V0H122.726C125.879 0 128.596 0.519957 130.877 1.55987C133.158 2.56624 134.92 4.02547 136.161 5.93757C137.402 7.84967 138.023 10.1308 138.023 12.7809C138.023 15.3974 137.402 17.6618 136.161 19.5739C134.92 21.4524 133.158 22.8949 130.877 23.9012L130.808 23.9315L138.677 35.2229H129.871L123.109 25.4083C122.982 25.4099 122.854 25.4108 122.726 25.4108H115.631V31.449ZM122.273 18.9197H115.631V6.64203H122.273C124.789 6.64203 126.667 7.17876 127.909 8.25222C129.15 9.32568 129.77 10.8352 129.77 12.7809C129.77 14.693 129.15 16.2025 127.909 17.3095C126.667 18.383 124.789 18.9197 122.273 18.9197Z" fill="#37392E"/>
<path d="M159.073 0L143.374 35.2229H151.727L163.045 8.00563L168.629 21.486L169.379 23.5418L171.193 27.6751L174.32 35.2229H182.874L167.124 0H159.073Z" fill="#37392E"/>
<path d="M62.898 36.5809H63.9558L66.4431 42.6563H66.5289L69.0162 36.5809H70.0741V43.8999H69.245V38.3392H69.1735L66.8863 43.8999H66.0858L63.7986 38.3392H63.7271V43.8999H62.898V36.5809Z" fill="black"/>
<path d="M76.3603 36.5809V43.8999H75.474V36.5809H76.3603Z" fill="black"/>
<path d="M81.7603 43.8999V36.5809H82.6466V43.1137H86.0488V43.8999H81.7603Z" fill="black"/>
<path d="M91.8061 43.8999H90.877L93.5644 36.5809H94.4793L97.1668 43.8999H96.2376L94.0505 37.7388H93.9933L91.8061 43.8999ZM92.1492 41.0409H95.8945V41.8272H92.1492V41.0409Z" fill="black"/>
<path d="M107.733 36.5809V43.8999H106.876L102.887 38.1533H102.816V43.8999H101.93V36.5809H102.787L106.79 42.3418H106.862V36.5809H107.733Z" fill="black"/>
<path d="M119.305 40.2404C119.305 41.0123 119.166 41.6794 118.887 42.2417C118.608 42.804 118.226 43.2376 117.74 43.5426C117.254 43.8475 116.699 44 116.075 44C115.45 44 114.895 43.8475 114.409 43.5426C113.923 43.2376 113.541 42.804 113.262 42.2417C112.983 41.6794 112.844 41.0123 112.844 40.2404C112.844 39.4685 112.983 38.8014 113.262 38.2391C113.541 37.6768 113.923 37.2432 114.409 36.9383C114.895 36.6333 115.45 36.4808 116.075 36.4808C116.699 36.4808 117.254 36.6333 117.74 36.9383C118.226 37.2432 118.608 37.6768 118.887 38.2391C119.166 38.8014 119.305 39.4685 119.305 40.2404ZM118.448 40.2404C118.448 39.6067 118.342 39.0718 118.13 38.6358C117.92 38.1998 117.635 37.8698 117.275 37.6459C116.918 37.4219 116.518 37.3099 116.075 37.3099C115.632 37.3099 115.23 37.4219 114.87 37.6459C114.513 37.8698 114.228 38.1998 114.016 38.6358C113.807 39.0718 113.702 39.6067 113.702 40.2404C113.702 40.8742 113.807 41.409 114.016 41.845C114.228 42.281 114.513 42.611 114.87 42.835C115.23 43.0589 115.632 43.1709 116.075 43.1709C116.518 43.1709 116.918 43.0589 117.275 42.835C117.635 42.611 117.92 42.281 118.13 41.845C118.342 41.409 118.448 40.8742 118.448 40.2404Z" fill="black"/>
</svg>
